<svg width="60" height="61" viewBox="0 0 60 61" fill="none" xmlns="http://www.w3.org/2000/svg">
<rect y="0.400024" width="60" height="60.08" rx="8" fill="#F3F6FF"/>
<g clip-path="url(#clip0_20005128_12744)">
<g clip-path="url(#clip1_20005128_12744)">
<g clip-path="url(#clip2_20005128_12744)">
<mask id="mask0_20005128_12744" style="mask-type:luminance" maskUnits="userSpaceOnUse" x="16" y="16" width="28" height="29">
<path d="M16 16.48H44V44.48H16V16.48Z" fill="white"/>
</mask>
<g mask="url(#mask0_20005128_12744)">
<path d="M29.945 44.48C29.777 44.48 29.61 44.442 29.456 44.365C29.328 44.301 26.287 42.759 23.104 39.3C21.2517 37.292 19.7161 35.0136 18.55 32.543C17.106 29.475 16.248 26.116 16.002 22.56C15.982 22.27 16.078 21.984 16.269 21.765C16.46 21.546 16.731 21.412 17.021 21.393C19.024 21.261 20.593 19.584 20.593 17.574C20.594 16.97 21.083 16.48 21.687 16.48H38.312C38.916 16.48 39.406 16.97 39.406 17.574C39.406 19.583 40.974 21.26 42.976 21.393C43.271 21.412 43.545 21.55 43.736 21.775C43.927 22 44.02 22.293 43.992 22.587C43.618 26.536 42.528 30.229 40.751 33.564C40.467 34.097 39.805 34.299 39.272 34.015C38.739 33.731 38.537 33.069 38.821 32.535C40.309 29.741 41.276 26.669 41.702 23.39C39.462 22.8 37.742 20.947 37.319 18.666H22.681C22.256 20.959 20.523 22.817 18.27 23.399C18.845 28.917 20.99 33.741 24.653 37.752C26.846 40.153 28.996 41.569 29.939 42.129C30.971 41.501 33.466 39.815 35.895 36.89C36.281 36.425 36.97 36.362 37.435 36.748C37.9 37.134 37.964 37.824 37.577 38.288C34.12 42.45 30.591 44.284 30.442 44.36C30.2879 44.439 30.1182 44.4802 29.945 44.48ZM30.791 38.561C31.155 38.079 31.06 37.393 30.578 37.029C29.632 36.314 28.737 35.504 27.918 34.621C25.535 32.052 23.919 29.035 23.107 25.642C23.545 25.304 23.956 24.931 24.336 24.526C24.966 23.855 25.504 23.107 25.935 22.3C26.22 21.767 26.018 21.105 25.486 20.82C24.954 20.535 24.291 20.737 24.006 21.269C23.6637 21.908 23.2387 22.4991 22.742 23.027C22.303 23.494 21.811 23.909 21.28 24.26C20.907 24.506 20.722 24.954 20.811 25.392C21.644 29.464 23.495 33.069 26.314 36.108C27.2158 37.0811 28.2012 37.9732 29.259 38.774C29.3734 38.8611 29.5039 38.9247 29.6429 38.9612C29.782 38.9976 29.9269 39.0062 30.0693 38.9864C30.2117 38.9666 30.3488 38.9188 30.4726 38.8458C30.5965 38.7728 30.7047 38.676 30.791 38.561Z" fill="url(#paint0_linear_20005128_12744)"/>
</g>
</g>
</g>
</g>
<defs>
<linearGradient id="paint0_linear_20005128_12744" x1="15.999" y1="30.547" x2="43.998" y2="30.547" gradientUnits="userSpaceOnUse">
<stop stop-color="#6366F1"/>
<stop offset="0.5" stop-color="#8B5CF6"/>
<stop offset="1" stop-color="#D946EF"/>
</linearGradient>
<clipPath id="clip0_20005128_12744">
<rect width="28" height="28" fill="white" transform="translate(16 16.48)"/>
</clipPath>
<clipPath id="clip1_20005128_12744">
<rect width="28" height="28" fill="white" transform="translate(16 16.48)"/>
</clipPath>
<clipPath id="clip2_20005128_12744">
<rect width="28" height="28" fill="white" transform="translate(16 16.48)"/>
</clipPath>
</defs>
</svg>
