<svg width="60" height="61" viewBox="0 0 60 61" fill="none" xmlns="http://www.w3.org/2000/svg">
<rect y="0.199951" width="60" height="60.08" rx="8" fill="#F3F6FF"/>
<g clip-path="url(#clip0_20005128_12755)">
<g clip-path="url(#clip1_20005128_12755)">
<g clip-path="url(#clip2_20005128_12755)">
<mask id="mask0_20005128_12755" style="mask-type:luminance" maskUnits="userSpaceOnUse" x="16" y="16" width="28" height="29">
<path d="M16 16.2799H44V44.2799H16V16.2799Z" fill="white"/>
</mask>
<g mask="url(#mask0_20005128_12755)">
<path d="M41.813 38.2629V19.0139C41.8122 18.8691 41.7543 18.7304 41.6519 18.628C41.5495 18.5256 41.4108 18.4677 41.266 18.4669H38.86C38.7152 18.4677 38.5765 18.5256 38.4741 18.628C38.3717 18.7304 38.3138 18.8691 38.313 19.0139V42.0899H42.906C43.51 42.0899 44 42.5799 44 43.1829C44 43.7859 43.51 44.2769 42.906 44.2769H17.096C16.492 44.2769 16.002 43.7869 16.002 43.1829V35.3629C16.0036 34.6383 16.2921 33.9438 16.8045 33.4314C17.3169 32.919 18.0114 32.6305 18.736 32.6289H21.142C21.8666 32.6305 22.5611 32.919 23.0735 33.4314C23.5859 33.9438 23.8744 34.6383 23.876 35.3629V38.2609C23.876 38.8649 23.386 39.3549 22.782 39.3549C22.178 39.3549 21.688 38.8649 21.688 38.2609V35.3629C21.6872 35.2181 21.6293 35.0794 21.5269 34.977C21.4245 34.8746 21.2858 34.8167 21.141 34.8159H18.736C18.5912 34.8167 18.4525 34.8746 18.3501 34.977C18.2477 35.0794 18.1898 35.2181 18.189 35.3629V42.0889H26.064V27.7639C26.0656 27.0393 26.3541 26.3448 26.8665 25.8324C27.3789 25.32 28.0734 25.0315 28.798 25.0299H31.204C31.9286 25.0315 32.6231 25.32 33.1355 25.8324C33.6479 26.3448 33.9364 27.0393 33.938 27.7639V38.2629C33.938 38.8669 33.448 39.3569 32.844 39.3569C32.24 39.3569 31.75 38.8669 31.75 38.2629V27.7639C31.7492 27.6191 31.6913 27.4804 31.5889 27.378C31.4865 27.2756 31.3478 27.2177 31.203 27.2169H28.797C28.6522 27.2177 28.5135 27.2756 28.4111 27.378C28.3087 27.4804 28.2508 27.6191 28.25 27.7639V42.0909H36.124V19.0139C36.1256 18.2889 36.4144 17.5942 36.9272 17.0817C37.44 16.5693 38.135 16.281 38.86 16.2799H41.266C41.9906 16.2815 42.6851 16.57 43.1975 17.0824C43.7099 17.5948 43.9984 18.2893 44 19.0139V38.2629C44 38.8669 43.51 39.3569 42.906 39.3569C42.302 39.3569 41.813 38.8669 41.813 38.2629ZM20.357 26.0679H18.728C18.459 26.0679 18.187 25.8989 18.187 25.5759C18.187 24.9719 17.697 24.4819 17.093 24.4819C16.489 24.4819 16 24.9719 16 25.5759C16 27.0449 17.145 28.2019 18.626 28.2529V28.8569C18.626 29.4609 19.116 29.9509 19.72 29.9509C20.324 29.9509 20.814 29.4609 20.814 28.8569V28.2239C22.319 28.0139 23.44 26.7769 23.44 25.2349V25.1389C23.44 23.4199 22.057 22.0219 20.358 22.0219H19.355C18.857 22.0219 18.466 21.6419 18.466 21.1559V21.0769C18.466 20.5869 18.848 20.2179 19.355 20.2179H20.303C20.582 20.2179 20.87 20.4039 20.87 20.7159C20.87 21.3199 21.36 21.8099 21.964 21.8099C22.568 21.8099 23.058 21.3199 23.058 20.7159C23.058 19.4049 22.09 18.3119 20.815 18.0769V17.3739C20.813 16.7699 20.324 16.2799 19.72 16.2799C19.116 16.2799 18.626 16.7699 18.626 17.3739V18.1149C18.085 18.2429 17.589 18.5129 17.187 18.9059C16.8977 19.1881 16.6682 19.5257 16.5122 19.8985C16.3562 20.2714 16.2769 20.6718 16.279 21.0759V21.1549C16.279 21.9809 16.601 22.7519 17.185 23.3269C17.763 23.8949 18.534 24.2079 19.355 24.2079H20.357C20.842 24.2079 21.252 24.6339 21.252 25.1369V25.2329C21.252 25.7089 20.867 26.0669 20.357 26.0669V26.0679Z" fill="url(#paint0_linear_20005128_12755)"/>
</g>
</g>
</g>
</g>
<defs>
<linearGradient id="paint0_linear_20005128_12755" x1="16" y1="30.3459" x2="44" y2="30.3459" gradientUnits="userSpaceOnUse">
<stop stop-color="#6366F1"/>
<stop offset="0.5" stop-color="#8B5CF6"/>
<stop offset="1" stop-color="#D946EF"/>
</linearGradient>
<clipPath id="clip0_20005128_12755">
<rect width="28" height="28" fill="white" transform="translate(16 16.2799)"/>
</clipPath>
<clipPath id="clip1_20005128_12755">
<rect width="28" height="28" fill="white" transform="translate(16 16.2799)"/>
</clipPath>
<clipPath id="clip2_20005128_12755">
<rect width="28" height="28" fill="white" transform="translate(16 16.2799)"/>
</clipPath>
</defs>
</svg>
