<svg width="60" height="61" viewBox="0 0 60 61" fill="none" xmlns="http://www.w3.org/2000/svg">
<rect y="0.200012" width="60" height="60.08" rx="8" fill="#F3F6FF"/>
<g clip-path="url(#clip0_20005128_12737)">
<g clip-path="url(#clip1_20005128_12737)">
<path d="M38.531 32.693C39.135 32.693 39.625 33.183 39.625 33.787V35.1C39.625 35.704 39.135 36.194 38.531 36.194H36.015C35.411 36.194 34.921 35.704 34.921 35.1V33.788C34.921 33.184 35.411 32.694 36.015 32.694L38.531 32.693ZM41.812 30.724V27.443H18.188V36.186C18.1885 36.7662 18.4192 37.3224 18.8294 37.7326C19.2397 38.1428 19.7959 38.3735 20.376 38.374H39.626C40.2061 38.3735 40.7624 38.1428 41.1726 37.7326C41.5828 37.3224 41.8135 36.7662 41.814 36.186C41.814 35.582 42.304 35.092 42.908 35.092C43.512 35.092 44 35.582 44 36.186C43.9987 37.3459 43.5373 38.458 42.7171 39.2782C41.8969 40.0983 40.7849 40.5597 39.625 40.561H20.375C19.2151 40.5597 18.1031 40.0983 17.2829 39.2782C16.4627 38.458 16.0013 37.3459 16 36.186V24.374C16.0013 23.2141 16.4627 22.1021 17.2829 21.2819C18.1031 20.4617 19.2151 20.0003 20.375 19.999H39.625C40.7849 20.0003 41.8969 20.4617 42.7171 21.2819C43.5373 22.1021 43.9987 23.2141 44 24.374V30.724C44 31.328 43.51 31.818 42.906 31.818C42.302 31.818 41.812 31.328 41.812 30.724ZM41.812 25.255V24.373C41.8112 23.7932 41.5805 23.2374 41.1706 22.8275C40.7606 22.4175 40.2048 22.1868 39.625 22.186H20.375C19.795 22.1868 19.2391 22.4176 18.8291 22.8278C18.4191 23.238 18.1885 23.7941 18.188 24.374V25.256H41.813L41.812 25.255ZM21.469 29.63C20.865 29.63 20.375 30.12 20.375 30.724C20.375 31.328 20.865 31.818 21.469 31.818H30.492C31.096 31.818 31.586 31.328 31.586 30.724C31.586 30.12 31.096 29.63 30.492 29.63H21.469Z" fill="url(#paint0_linear_20005128_12737)"/>
</g>
</g>
<defs>
<linearGradient id="paint0_linear_20005128_12737" x1="16" y1="30.329" x2="44" y2="30.329" gradientUnits="userSpaceOnUse">
<stop stop-color="#6366F1"/>
<stop offset="0.5" stop-color="#8B5CF6"/>
<stop offset="1" stop-color="#D946EF"/>
</linearGradient>
<clipPath id="clip0_20005128_12737">
<rect width="28" height="28" fill="white" transform="translate(16 16.28)"/>
</clipPath>
<clipPath id="clip1_20005128_12737">
<rect width="28" height="28" fill="white" transform="translate(16 16.28)"/>
</clipPath>
</defs>
</svg>
