<svg width="60" height="61" viewBox="0 0 60 61" fill="none" xmlns="http://www.w3.org/2000/svg">
<rect y="0.400024" width="60" height="60.08" rx="8" fill="#F3F6FF"/>
<g clip-path="url(#clip0_20005128_12766)">
<g clip-path="url(#clip1_20005128_12766)">
<g clip-path="url(#clip2_20005128_12766)">
<mask id="mask0_20005128_12766" style="mask-type:luminance" maskUnits="userSpaceOnUse" x="16" y="16" width="28" height="29">
<path d="M16 16.48H44V44.48H16V16.48Z" fill="white"/>
</mask>
<g mask="url(#mask0_20005128_12766)">
<path d="M42.322 39.024C43.422 37.527 43.999 35.787 43.999 33.954C43.999 31.019 42.477 28.294 39.909 26.593C39.672 23.978 38.451 21.553 36.409 19.684C34.152 17.618 31.157 16.48 27.976 16.48C24.795 16.48 21.8 17.618 19.542 19.684C17.258 21.775 16 24.563 16 27.534C16 29.819 16.737 31.986 18.137 33.84L16.079 38.929C15.912 39.342 16.012 39.814 16.332 40.124C16.54 40.326 16.815 40.432 17.094 40.432C17.243 40.432 17.393 40.402 17.535 40.339L23.403 37.752C24.14 38.034 24.899 38.244 25.675 38.384C26.47 39.692 27.605 40.8 28.984 41.606C30.524 42.506 32.301 42.987 34.13 43.001L34.211 43.005C35.4561 43.0082 36.6916 42.7881 37.859 42.355L42.465 44.386C42.6039 44.4474 42.7541 44.479 42.906 44.479C43.185 44.479 43.459 44.372 43.668 44.171C43.988 43.861 44.088 43.388 43.921 42.976L42.322 39.024ZM40.056 39.254L40.882 41.298L38.321 40.169C38.044 40.047 37.729 40.045 37.451 40.164C36.447 40.592 35.372 40.812 34.255 40.818L34.211 40.816C32.056 40.816 30.019 39.974 28.597 38.573C30.401 38.487 32.169 38.026 33.745 37.225C34.284 36.951 34.498 36.293 34.225 35.754C33.952 35.215 33.293 35.001 32.754 35.274C31.303 36.011 29.651 36.401 27.977 36.401C26.522 36.401 25.121 36.118 23.814 35.56C23.536 35.441 23.22 35.443 22.944 35.565L19.118 37.251L20.406 34.065C20.559 33.687 20.489 33.256 20.224 32.946C18.892 31.383 18.188 29.512 18.188 27.534C18.188 22.645 22.579 18.667 27.977 18.667C33.375 18.667 37.766 22.645 37.766 27.534C37.766 29.113 37.302 30.663 36.423 32.017C36.094 32.524 36.239 33.201 36.745 33.53C37.251 33.859 37.929 33.714 38.258 33.208C39.0297 32.0231 39.5538 30.6945 39.799 29.302C41.08 30.557 41.812 32.21 41.812 33.954C41.812 35.481 41.268 36.927 40.237 38.135C39.973 38.445 39.904 38.877 40.056 39.254ZM29.015 33.16C29.015 33.764 28.525 34.254 27.921 34.254C27.317 34.254 26.827 33.764 26.827 33.16C26.827 32.556 27.317 32.066 27.921 32.066C28.525 32.066 29.015 32.556 29.015 33.16ZM32.077 24.965C32.078 24.98 32.078 24.995 32.078 25.011C32.0787 25.8153 31.8428 26.602 31.3997 27.2732C30.9566 27.9445 30.3258 28.4705 29.586 28.786C29.273 28.92 29.07 29.235 29.07 29.59V29.661C29.07 30.265 28.58 30.755 27.976 30.755C27.372 30.755 26.882 30.265 26.882 29.661V29.591C26.8792 28.9923 27.0527 28.4061 27.3808 27.9054C27.7088 27.4046 28.177 27.0115 28.727 26.775C29.424 26.477 29.878 25.8 29.89 25.044V25.012C29.89 23.957 29.032 23.098 27.976 23.098C26.92 23.098 26.062 23.956 26.062 25.012C26.062 25.616 25.572 26.106 24.968 26.106C24.364 26.106 23.874 25.616 23.874 25.012C23.874 22.751 25.714 20.911 27.975 20.911C30.221 20.911 32.051 22.726 32.076 24.966L32.077 24.965Z" fill="url(#paint0_linear_20005128_12766)"/>
</g>
</g>
</g>
</g>
<defs>
<linearGradient id="paint0_linear_20005128_12766" x1="16" y1="30.547" x2="44" y2="30.547" gradientUnits="userSpaceOnUse">
<stop stop-color="#6366F1"/>
<stop offset="0.5" stop-color="#8B5CF6"/>
<stop offset="1" stop-color="#D946EF"/>
</linearGradient>
<clipPath id="clip0_20005128_12766">
<rect width="28" height="28" fill="white" transform="translate(16 16.48)"/>
</clipPath>
<clipPath id="clip1_20005128_12766">
<rect width="28" height="28" fill="white" transform="translate(16 16.48)"/>
</clipPath>
<clipPath id="clip2_20005128_12766">
<rect width="28" height="28" fill="white" transform="translate(16 16.48)"/>
</clipPath>
</defs>
</svg>
