<svg width="60" height="61" viewBox="0 0 60 61" fill="none" xmlns="http://www.w3.org/2000/svg">
<rect y="0.400024" width="60" height="60.08" rx="8" fill="#F3F6FF"/>
<g clip-path="url(#clip0_20005128_12788)">
<g clip-path="url(#clip1_20005128_12788)">
<g clip-path="url(#clip2_20005128_12788)">
<mask id="mask0_20005128_12788" style="mask-type:luminance" maskUnits="userSpaceOnUse" x="16" y="16" width="28" height="29">
<path d="M16 16.48H44V44.48H16V16.48Z" fill="white"/>
</mask>
<g mask="url(#mask0_20005128_12788)">
<path d="M29.945 38.136C24.914 38.136 22.572 33.914 22.475 33.735C22.188 33.204 22.385 32.54 22.917 32.252C23.449 31.964 24.112 32.163 24.399 32.694C24.401 32.698 24.873 33.541 25.811 34.361C27.016 35.414 28.407 35.949 29.945 35.949C33.687 35.949 35.473 32.727 35.491 32.694C35.779 32.163 36.442 31.965 36.974 32.252C37.506 32.539 37.703 33.203 37.416 33.734C37.319 33.914 34.978 38.135 29.946 38.135L29.945 38.136ZM37.244 42.462C37.761 42.149 37.926 41.477 37.613 40.96C37.3 40.443 36.627 40.278 36.111 40.591C34.2677 41.706 32.1542 42.2946 30 42.293C26.8686 42.2882 23.8667 41.0421 21.6526 38.8277C19.4384 36.6133 18.1925 33.6114 18.188 30.48C18.1928 27.3487 19.4388 24.347 21.6529 22.1329C23.8671 19.9187 26.8687 18.6727 30 18.668C33.1314 18.6725 36.1334 19.9184 38.3477 22.1325C40.5621 24.3467 41.8082 27.3485 41.813 30.48C41.813 32.809 41.12 35.076 39.81 37.036C39.474 37.538 39.609 38.217 40.111 38.553C40.613 38.889 41.292 38.754 41.628 38.252C43.18 35.931 44 33.243 44 30.48C44 26.741 42.544 23.225 39.9 20.58C37.256 17.935 33.74 16.48 30 16.48C26.26 16.48 22.745 17.936 20.1 20.58C17.455 23.224 16 26.741 16 30.48C16 34.219 17.456 37.735 20.1 40.38C22.744 43.025 26.261 44.48 30 44.48C32.56 44.48 35.065 43.782 37.244 42.462ZM37.602 27.855C37.6004 27.1304 37.3119 26.4359 36.7995 25.9235C36.2871 25.4111 35.5926 25.1226 34.868 25.121C34.1434 25.1226 33.4489 25.4111 32.9365 25.9235C32.4241 26.4359 32.1356 27.1304 32.134 27.855C32.134 28.459 32.624 28.949 33.228 28.949C33.832 28.949 34.322 28.459 34.322 27.855C34.3228 27.7101 34.3807 27.5715 34.4831 27.4691C34.5855 27.3667 34.7242 27.3088 34.869 27.308C35.0138 27.3088 35.1525 27.3667 35.2549 27.4691C35.3573 27.5715 35.4152 27.7101 35.416 27.855C35.416 28.459 35.906 28.949 36.51 28.949C37.114 28.949 37.604 28.459 37.604 27.855H37.602ZM27.922 27.855C27.9204 27.1304 27.6319 26.4359 27.1195 25.9235C26.6071 25.4111 25.9126 25.1226 25.188 25.121C24.4634 25.1226 23.7689 25.4111 23.2565 25.9235C22.7441 26.4359 22.4556 27.1304 22.454 27.855C22.454 28.459 22.944 28.949 23.548 28.949C24.152 28.949 24.642 28.459 24.642 27.855C24.6428 27.7101 24.7007 27.5715 24.8031 27.4691C24.9055 27.3667 25.0442 27.3088 25.189 27.308C25.3338 27.3088 25.4725 27.3667 25.5749 27.4691C25.6773 27.5715 25.7352 27.7101 25.736 27.855C25.736 28.459 26.226 28.949 26.83 28.949C27.434 28.949 27.924 28.459 27.924 27.855H27.922Z" fill="url(#paint0_linear_20005128_12788)"/>
</g>
</g>
</g>
</g>
<defs>
<linearGradient id="paint0_linear_20005128_12788" x1="16" y1="30.547" x2="44" y2="30.547" gradientUnits="userSpaceOnUse">
<stop stop-color="#6366F1"/>
<stop offset="0.5" stop-color="#8B5CF6"/>
<stop offset="1" stop-color="#D946EF"/>
</linearGradient>
<clipPath id="clip0_20005128_12788">
<rect width="28" height="28" fill="white" transform="translate(16 16.48)"/>
</clipPath>
<clipPath id="clip1_20005128_12788">
<rect width="28" height="28" fill="white" transform="translate(16 16.48)"/>
</clipPath>
<clipPath id="clip2_20005128_12788">
<rect width="28" height="28" fill="white" transform="translate(16 16.48)"/>
</clipPath>
</defs>
</svg>
