<svg width="60" height="61" viewBox="0 0 60 61" fill="none" xmlns="http://www.w3.org/2000/svg">
<rect y="0.599976" width="60" height="60.08" rx="8" fill="#F3F6FF"/>
<g clip-path="url(#clip0_20005128_12777)">
<g clip-path="url(#clip1_20005128_12777)">
<g clip-path="url(#clip2_20005128_12777)">
<mask id="mask0_20005128_12777" style="mask-type:luminance" maskUnits="userSpaceOnUse" x="16" y="16" width="28" height="29">
<path d="M16 16.6799H44V44.6799H16V16.6799Z" fill="white"/>
</mask>
<g mask="url(#mask0_20005128_12777)">
<path d="M38.148 30.7349C36.339 30.7349 34.867 32.2069 34.867 34.0159C34.867 35.8249 36.339 37.2969 38.148 37.2969H42.796L42.851 37.2939L42.905 37.2969C43.509 37.2969 43.999 36.8069 43.999 36.2029V27.6169C43.9989 26.925 43.8344 26.243 43.5193 25.627C43.2041 25.0111 42.7471 24.4787 42.186 24.0739L38.466 17.9699C38.314 17.7209 38.069 17.5429 37.786 17.4749C37.503 17.4069 37.204 17.4559 36.956 17.6089L34.212 19.3109L32.974 17.2169C32.825 16.9649 32.582 16.7839 32.298 16.7119C32.014 16.6399 31.714 16.6859 31.464 16.8379L20.928 23.2429H19.281C18.687 23.2429 18.202 22.7669 18.188 22.1769C18.203 21.5859 18.687 21.1109 19.281 21.1109H21.304C21.908 21.1109 22.398 20.6209 22.398 20.0169C22.398 19.4129 21.908 18.9229 21.304 18.9229H19.281C17.734 18.9219 16.433 19.9989 16.089 21.4429C16.0302 21.5793 15.9999 21.7263 16 21.8749V22.1479V22.2029V40.3049C16.0013 41.4648 16.4627 42.5768 17.2829 43.397C18.1031 44.2172 19.2151 44.6786 20.375 44.6799H39.625C40.5433 44.6809 41.4386 44.3925 42.1837 43.8558C42.9289 43.319 43.486 42.5612 43.776 41.6899C43.967 41.1169 43.658 40.4969 43.085 40.3059C42.512 40.1149 41.893 40.4239 41.701 40.9969C41.403 41.8909 40.569 42.4919 39.625 42.4919H20.375C19.7952 42.4911 19.2394 42.2604 18.8294 41.8505C18.4195 41.4405 18.1888 40.8847 18.188 40.3049V25.2419C18.53 25.3629 18.898 25.4299 19.282 25.4299H39.626C40.206 25.4304 40.762 25.661 41.1722 26.071C41.5824 26.481 41.8132 27.0369 41.814 27.6169V30.7339H38.15L38.148 30.7349ZM41.812 35.1099H38.148C37.545 35.1099 37.054 34.6189 37.054 34.0159C37.054 33.4129 37.545 32.9219 38.148 32.9219H41.812V35.1099ZM25.14 23.2429L31.654 19.2839L32.819 21.2549C32.8413 21.3097 32.8681 21.3625 32.899 21.4129C32.9228 21.4504 32.9489 21.4865 32.977 21.5209L33.994 23.2419H25.14V23.2429ZM36.535 23.2429L35.325 21.1959L37.172 20.0509L39.118 23.2439H36.534L36.535 23.2429Z" fill="url(#paint0_linear_20005128_12777)"/>
</g>
</g>
</g>
</g>
<defs>
<linearGradient id="paint0_linear_20005128_12777" x1="16" y1="30.7469" x2="44" y2="30.7469" gradientUnits="userSpaceOnUse">
<stop stop-color="#6366F1"/>
<stop offset="0.5" stop-color="#8B5CF6"/>
<stop offset="1" stop-color="#D946EF"/>
</linearGradient>
<clipPath id="clip0_20005128_12777">
<rect width="28" height="28" fill="white" transform="translate(16 16.6799)"/>
</clipPath>
<clipPath id="clip1_20005128_12777">
<rect width="28" height="28" fill="white" transform="translate(16 16.6799)"/>
</clipPath>
<clipPath id="clip2_20005128_12777">
<rect width="28" height="28" fill="white" transform="translate(16 16.6799)"/>
</clipPath>
</defs>
</svg>
